<?xml version="1.0" encoding="UTF-8" standalone="no"?>
<!-- Created with Inkscape (http://www.inkscape.org/) -->

<svg
   xmlns:dc="http://purl.org/dc/elements/1.1/"
   xmlns:cc="http://creativecommons.org/ns#"
   xmlns:rdf="http://www.w3.org/1999/02/22-rdf-syntax-ns#"
   xmlns:svg="http://www.w3.org/2000/svg"
   xmlns="http://www.w3.org/2000/svg"
   xmlns:xlink="http://www.w3.org/1999/xlink"
   xmlns:sodipodi="http://sodipodi.sourceforge.net/DTD/sodipodi-0.dtd"
   xmlns:inkscape="http://www.inkscape.org/namespaces/inkscape"
   width="18"
   height="18"
   id="svg2"
   version="1.1"
   inkscape:version="0.48.3.1 r9886"
   sodipodi:docname="paintbrush.svg"
   inkscape:export-filename="/data/knome/Repositories/gimp-pslike/images/toolbox/paintbrush-18.png"
   inkscape:export-xdpi="90"
   inkscape:export-ydpi="90">
  <defs
     id="defs4">
    <linearGradient
       id="linearGradient3872">
      <stop
         style="stop-color:#ffffff;stop-opacity:1;"
         offset="0"
         id="stop3874" />
      <stop
         id="stop3880"
         offset="0.5"
         style="stop-color:#ebebeb;stop-opacity:1;" />
      <stop
         style="stop-color:#787878;stop-opacity:1;"
         offset="1"
         id="stop3876" />
    </linearGradient>
    <linearGradient
       id="linearGradient3791">
      <stop
         style="stop-color:#787878;stop-opacity:1;"
         offset="0"
         id="stop3793" />
      <stop
         style="stop-color:#000000;stop-opacity:1;"
         offset="1"
         id="stop3795" />
    </linearGradient>
    <radialGradient
       inkscape:collect="always"
       xlink:href="#linearGradient3791"
       id="radialGradient3820"
       cx="2.7105265"
       cy="5.9590855"
       fx="2.7105265"
       fy="5.9590855"
       r="2.25"
       gradientTransform="matrix(-5.1551986e-7,4.8888891,-3.5555551,-3.7492349e-7,24.187859,1023.1107)"
       gradientUnits="userSpaceOnUse" />
    <radialGradient
       inkscape:collect="always"
       xlink:href="#linearGradient3791"
       id="radialGradient3856"
       gradientUnits="userSpaceOnUse"
       gradientTransform="matrix(-4.3885694e-6,1.875,-1.8750001,-4.3885696e-6,16.446453,1029.9872)"
       cx="5.5333147"
       cy="5.8380952"
       fx="5.5333147"
       fy="5.8380952"
       r="8" />
    <radialGradient
       inkscape:collect="always"
       xlink:href="#linearGradient3791"
       id="radialGradient3827"
       cx="3"
       cy="3"
       fx="3"
       fy="3"
       r="3.5"
       gradientUnits="userSpaceOnUse"
       gradientTransform="matrix(-7.3469389e-8,2.9387755,-3.3061225,-8.2653063e-8,33.489796,1029.1174)" />
    <radialGradient
       inkscape:collect="always"
       xlink:href="#linearGradient3791"
       id="radialGradient3843"
       cx="6.3418803"
       cy="7.6581192"
       fx="6.3418803"
       fy="7.6581192"
       r="5.5"
       gradientUnits="userSpaceOnUse"
       gradientTransform="matrix(8.0337896e-8,2.9090911,-2.9090908,8.0337888e-8,48.278164,1021.9131)" />
    <radialGradient
       inkscape:collect="always"
       xlink:href="#linearGradient3872"
       id="radialGradient3878"
       cx="1"
       cy="-1"
       fx="1"
       fy="-1"
       r="8.485281"
       gradientUnits="userSpaceOnUse" />
    <filter
       inkscape:collect="always"
       id="filter3886">
      <feGaussianBlur
         inkscape:collect="always"
         stdDeviation="0.33941124"
         id="feGaussianBlur3888" />
    </filter>
    <radialGradient
       inkscape:collect="always"
       xlink:href="#linearGradient3791"
       id="radialGradient3892"
       gradientUnits="userSpaceOnUse"
       gradientTransform="matrix(8.0337896e-8,2.9090911,-2.9090908,8.0337888e-8,49.278164,1022.9131)"
       cx="6.3418803"
       cy="7.6581192"
       fx="6.3418803"
       fy="7.6581192"
       r="5.5" />
    <filter
       inkscape:collect="always"
       id="filter3894">
      <feGaussianBlur
         inkscape:collect="always"
         stdDeviation="0.16"
         id="feGaussianBlur3896" />
    </filter>
    <radialGradient
       inkscape:collect="always"
       xlink:href="#linearGradient3791"
       id="radialGradient3829"
       cx="5"
       cy="5.2985201"
       fx="5"
       fy="5.2985201"
       r="7.109375"
       gradientTransform="matrix(-1.9703118e-8,2.1098901,-1.9692308,-1.8389577e-8,15.434009,-5.5494507)"
       gradientUnits="userSpaceOnUse" />
    <radialGradient
       inkscape:collect="always"
       xlink:href="#linearGradient3872"
       id="radialGradient3839"
       cx="4"
       cy="14"
       fx="4"
       fy="14"
       r="3.5"
       gradientUnits="userSpaceOnUse"
       gradientTransform="matrix(2.2857143,0,0,2,-5.1428571,-14)" />
    <radialGradient
       inkscape:collect="always"
       xlink:href="#linearGradient3872"
       id="radialGradient3899"
       gradientUnits="userSpaceOnUse"
       gradientTransform="matrix(2.2857143,0,0,2,-5.1428571,980.3622)"
       cx="4"
       cy="14"
       fx="4"
       fy="14"
       r="3.5" />
    <radialGradient
       inkscape:collect="always"
       xlink:href="#linearGradient3791"
       id="radialGradient3901"
       gradientUnits="userSpaceOnUse"
       gradientTransform="matrix(-1.9703118e-8,2.1098901,-1.9692308,-1.8389577e-8,15.434009,988.8127)"
       cx="5"
       cy="5.2985201"
       fx="5"
       fy="5.2985201"
       r="7.109375" />
    <radialGradient
       inkscape:collect="always"
       xlink:href="#linearGradient3791"
       id="radialGradient3794"
       cx="5"
       cy="4.7895837"
       fx="5"
       fy="4.7895837"
       r="8.1758242"
       gradientTransform="matrix(-5.6163404e-8,1.8346774,-1.9569892,-5.990763e-8,14.373164,-4.1733869)"
       gradientUnits="userSpaceOnUse" />
    <radialGradient
       inkscape:collect="always"
       xlink:href="#linearGradient3872"
       id="radialGradient3804"
       cx="3.2375"
       cy="9.9109945"
       fx="3.2375"
       fy="9.9109945"
       r="3.8125"
       gradientTransform="matrix(4.6081321e-8,1.5737706,-1.5737707,4.6081324e-8,18.597632,4.9049169)"
       gradientUnits="userSpaceOnUse" />
    <filter
       inkscape:collect="always"
       id="filter3810">
      <feGaussianBlur
         inkscape:collect="always"
         stdDeviation="0.3072705"
         id="feGaussianBlur3812" />
    </filter>
  </defs>
  <sodipodi:namedview
     id="base"
     pagecolor="#ffffff"
     bordercolor="#666666"
     borderopacity="1.0"
     inkscape:pageopacity="0.0"
     inkscape:pageshadow="2"
     inkscape:zoom="32"
     inkscape:cx="12.250706"
     inkscape:cy="7.5823796"
     inkscape:document-units="px"
     inkscape:current-layer="layer1"
     showgrid="true"
     inkscape:window-width="1496"
     inkscape:window-height="1072"
     inkscape:window-x="1920"
     inkscape:window-y="30"
     inkscape:window-maximized="0">
    <inkscape:grid
       type="xygrid"
       id="grid2985"
       empspacing="9"
       visible="true"
       enabled="true"
       snapvisiblegridlinesonly="true" />
  </sodipodi:namedview>
  <metadata
     id="metadata7">
    <rdf:RDF>
      <cc:Work
         rdf:about="">
        <dc:format>image/svg+xml</dc:format>
        <dc:type
           rdf:resource="http://purl.org/dc/dcmitype/StillImage" />
        <dc:title></dc:title>
      </cc:Work>
    </rdf:RDF>
  </metadata>
  <g
     inkscape:label="Layer 1"
     inkscape:groupmode="layer"
     id="layer1"
     transform="translate(0,-1034.3622)">
    <path
       id="path3806"
       d="m 14.656149,1037.9869 -4.25,4.25 c -0.250834,0.065 -0.4996955,0.1607 -0.71875,0.2813 -0.9501226,0.5235 -1.672808,1.4406 -2.15625,1.9375 -0.1472732,0.055 -0.2989113,0.1267 -0.4375,0.2187 -0.2771774,0.1841 -0.5627326,0.4254 -0.84375,0.6875 -0.5620349,0.5243 -1.1217635,1.153 -1.59375,1.625 -0.5543399,0.5543 -0.7409409,0.9909 -0.875,1.125 -0.06703,0.067 -0.1283582,0.1099 -0.3125,0.1563 -0.1841418,0.047 -0.4900167,0.094 -0.96875,0.094 l -0.46875,0 -0.03125,0.4375 c 0,0 -0.071999,0.6138 0.21875,1.25 0.2907494,0.6362 1.0418353,1.3125 2.28125,1.3125 1.2699766,0 2.8027335,-0.5498 4.09375,-1.3437 1.2910165,-0.7938 2.40625,-1.8432 2.40625,-3.1563 0,-0.2601 -0.04254,-0.4983 -0.09375,-0.7187 l 6.437601,-6.4379 -0.6875,-0.7188 -4.000101,4.0317 c -0.289198,-0.3143 -0.588543,-0.5433 -0.90625,-0.6875 l 3.59375,-3.625 -0.6875,-0.7188 z m -3.71875,5.1563 c 0.07757,0 0.141779,0.013 0.21875,0.031 0.230912,0.054 0.487409,0.2091 0.78125,0.5313 l -1.5,1.5 c -0.185481,-0.2289 -0.387906,-0.4465 -0.625,-0.5625 -0.2940627,-0.144 -0.5889741,-0.1838 -0.875,-0.2188 0.3983702,-0.4052 0.8259791,-0.7976 1.25,-1.0312 0.265751,-0.1465 0.51729,-0.2444 0.75,-0.25 z m -2.9375,2.2187 c 0.4575103,0 1.0090949,0.01 1.375,0.1875 0.3659051,0.1791 0.625,0.4446 0.625,1.3125 0,0.6869 -0.7579394,1.6064 -1.90625,2.3125 -1.1483106,0.7061 -2.6210352,1.1875 -3.59375,1.1875 -0.9324603,0 -1.2087181,-0.3548 -1.375,-0.7187 -0.0764,-0.1671 -0.045687,-0.207 -0.0625,-0.3438 0.2189804,-0.017 0.4854239,-0.02 0.65625,-0.062 0.3174845,-0.08 0.5657285,-0.222 0.75,-0.4062 0.3685431,-0.3686 0.4397487,-0.6898 0.875,-1.125 0.4974725,-0.4975 1.07559,-1.1105 1.59375,-1.5938 0.25908,-0.2417 0.5183653,-0.4605 0.71875,-0.5937 0.2003847,-0.1331 0.3460062,-0.1563 0.34375,-0.1563 z"
       style="font-size:medium;font-style:normal;font-variant:normal;font-weight:normal;font-stretch:normal;text-indent:0;text-align:start;text-decoration:none;line-height:normal;letter-spacing:normal;word-spacing:normal;text-transform:none;direction:ltr;block-progression:tb;writing-mode:lr-tb;text-anchor:start;baseline-shift:baseline;opacity:0.5;color:#000000;fill:#999999;fill-opacity:1;stroke:none;stroke-width:1px;marker:none;visibility:visible;display:inline;overflow:visible;filter:url(#filter3810);enable-background:accumulate;font-family:Sans;-inkscape-font-specification:Sans"
       inkscape:connector-curvature="0"
       sodipodi:nodetypes="cccccccccsccsscscccccccccscccccccccsssccccccccc" />
    <path
       style="fill:#ffffff;fill-opacity:1;stroke:none"
       d="M 7.380427,9.3821362 8.7504463,7.7027576 9.6343298,7.1724275 12.241786,4.6975538 16,1 17,3 9.413359,10.398602 8.0875337,9.5589129 z"
       id="path3875"
       inkscape:connector-curvature="0"
       transform="translate(0,1034.3622)"
       sodipodi:nodetypes="ccccccccc" />
    <path
       style="fill:url(#radialGradient3804);stroke:none;stroke-width:1px;stroke-linecap:butt;stroke-linejoin:miter;stroke-opacity:1;fill-opacity:1"
       d="M 1.71875,13.5625 C 1.9375,13.53125 3.03125,13 3.03125,13 l 1.375,-1.53125 2.5624999,-1.8749999 1.3125,0 1.0625,0.9687499 0,1.34375 -1.5,2.0625 L 3.90625,15.625 c 0,0 -1.46875,-0.34375 -1.53125,-0.46875 C 2.3125,15.03125 1.71875,13.5625 1.71875,13.5625 z"
       id="path3796"
       inkscape:connector-curvature="0"
       transform="translate(0,1034.3622)" />
    <path
       style="font-size:medium;font-style:normal;font-variant:normal;font-weight:normal;font-stretch:normal;text-indent:0;text-align:start;text-decoration:none;line-height:normal;letter-spacing:normal;word-spacing:normal;text-transform:none;direction:ltr;block-progression:tb;writing-mode:lr-tb;text-anchor:start;baseline-shift:baseline;color:#000000;fill:url(#radialGradient3794);fill-opacity:1;stroke:none;stroke-width:1px;marker:none;visibility:visible;display:inline;overflow:visible;enable-background:accumulate;font-family:Sans;-inkscape-font-specification:Sans"
       d="M 15.65625 0.625 L 9.40625 6.875 C 9.155416 6.9399763 8.9065545 7.0356733 8.6875 7.15625 C 7.7373774 7.6798167 7.014692 8.5968834 6.53125 9.09375 C 6.3839768 9.1488625 6.2323387 9.22045 6.09375 9.3125 C 5.8165726 9.4966 5.5310174 9.7379 5.25 10 C 4.6879651 10.5243 4.1282365 11.153 3.65625 11.625 C 3.1019101 12.1793 2.9153091 12.6159 2.78125 12.75 C 2.71422 12.817 2.6528918 12.85985 2.46875 12.90625 C 2.2846082 12.95325 1.9787333 13 1.5 13 L 1.03125 13 L 1 13.4375 C 1 13.4375 0.9280006 14.0513 1.21875 14.6875 C 1.5094994 15.3237 2.2605853 16 3.5 16 C 4.7699766 16 6.3027335 15.45015 7.59375 14.65625 C 8.8847665 13.86245 10 12.8131 10 11.5 C 10 11.239923 9.9574618 11.001711 9.90625 10.78125 L 17.34375 3.34375 L 16.65625 2.625 L 11.65625 7.65625 C 11.367052 7.3420461 11.067707 7.1130231 10.75 6.96875 L 16.34375 1.34375 L 15.65625 0.625 z M 9.9375 7.78125 C 10.01507 7.7793703 10.079279 7.7945 10.15625 7.8125 C 10.387162 7.8665 10.643659 8.0216062 10.9375 8.34375 L 9.4375 9.84375 C 9.2520189 9.6149073 9.0495945 9.397348 8.8125 9.28125 C 8.5184373 9.1373013 8.2235259 9.0974566 7.9375 9.0625 C 8.3358702 8.6572641 8.7634791 8.2648995 9.1875 8.03125 C 9.4532509 7.884775 9.7047902 7.7868891 9.9375 7.78125 z M 7 10 C 7.4575103 10 8.0090949 10.01 8.375 10.1875 C 8.7409051 10.3666 9 10.6321 9 11.5 C 9 12.1869 8.2420606 13.1064 7.09375 13.8125 C 5.9454394 14.5186 4.4727148 15 3.5 15 C 2.5675397 15 2.2912819 14.64515 2.125 14.28125 C 2.0486 14.11415 2.079313 14.0743 2.0625 13.9375 C 2.2814804 13.9205 2.5479239 13.918 2.71875 13.875 C 3.0362345 13.795 3.2844785 13.65295 3.46875 13.46875 C 3.8372931 13.10015 3.9084987 12.77895 4.34375 12.34375 C 4.8412225 11.84625 5.41934 11.2333 5.9375 10.75 C 6.19658 10.5083 6.4558653 10.28945 6.65625 10.15625 C 6.8566347 10.02315 7.0022562 10 7 10 z "
       transform="translate(0,1034.3622)"
       id="path34" />
  </g>
</svg>
