<?xml version="1.0" encoding="UTF-8" standalone="no"?>
<!-- Created with Inkscape (http://www.inkscape.org/) -->

<svg
   xmlns:dc="http://purl.org/dc/elements/1.1/"
   xmlns:cc="http://creativecommons.org/ns#"
   xmlns:rdf="http://www.w3.org/1999/02/22-rdf-syntax-ns#"
   xmlns:svg="http://www.w3.org/2000/svg"
   xmlns="http://www.w3.org/2000/svg"
   xmlns:xlink="http://www.w3.org/1999/xlink"
   xmlns:sodipodi="http://sodipodi.sourceforge.net/DTD/sodipodi-0.dtd"
   xmlns:inkscape="http://www.inkscape.org/namespaces/inkscape"
   width="18"
   height="18"
   id="svg2"
   version="1.1"
   inkscape:version="0.48.3.1 r9886"
   sodipodi:docname="rectangle-select.svg"
   inkscape:export-filename="/data/knome/Repositories/gimp-pslike/images/toolbox/rectangle-select-18.png"
   inkscape:export-xdpi="90"
   inkscape:export-ydpi="90">
  <defs
     id="defs4">
    <linearGradient
       id="linearGradient3791">
      <stop
         style="stop-color:#a0a0a0;stop-opacity:1;"
         offset="0"
         id="stop3793" />
      <stop
         style="stop-color:#000000;stop-opacity:1;"
         offset="1"
         id="stop3795" />
    </linearGradient>
    <radialGradient
       inkscape:collect="always"
       xlink:href="#linearGradient3791"
       id="radialGradient3797"
       cx="2.4465013"
       cy="1038.8914"
       fx="2.4465013"
       fy="1038.8914"
       r="7.5"
       gradientTransform="matrix(1.60451e-6,1.8666677,-2.0000009,1.7191177e-6,2083.7837,1035.7936)"
       gradientUnits="userSpaceOnUse" />
    <filter
       inkscape:collect="always"
       id="filter3829">
      <feGaussianBlur
         inkscape:collect="always"
         stdDeviation="0.29"
         id="feGaussianBlur3831" />
    </filter>
  </defs>
  <sodipodi:namedview
     id="base"
     pagecolor="#ffffff"
     bordercolor="#666666"
     borderopacity="1.0"
     inkscape:pageopacity="0.0"
     inkscape:pageshadow="2"
     inkscape:zoom="11.2"
     inkscape:cx="26.445562"
     inkscape:cy="6.388669"
     inkscape:document-units="px"
     inkscape:current-layer="layer1"
     showgrid="true"
     inkscape:window-width="1496"
     inkscape:window-height="1072"
     inkscape:window-x="1920"
     inkscape:window-y="30"
     inkscape:window-maximized="0">
    <inkscape:grid
       type="xygrid"
       id="grid2985"
       empspacing="8"
       visible="true"
       enabled="true"
       snapvisiblegridlinesonly="true" />
  </sodipodi:namedview>
  <metadata
     id="metadata7">
    <rdf:RDF>
      <cc:Work
         rdf:about="">
        <dc:format>image/svg+xml</dc:format>
        <dc:type
           rdf:resource="http://purl.org/dc/dcmitype/StillImage" />
        <dc:title></dc:title>
      </cc:Work>
    </rdf:RDF>
  </metadata>
  <g
     inkscape:label="Layer 1"
     inkscape:groupmode="layer"
     id="layer1"
     transform="translate(0,-1034.3622)">
    <path
       inkscape:connector-curvature="0"
       id="path3821"
       d="m 3,1037.3622 0,1 0,2 1,0 0,-2 2,0 0,-1 -2,0 -1,0 z m 5,0 0,1 5,0 0,-1 -5,0 z m 7,0 0,1 2,0 0,3 1,0 0,-4 -3,0 z m -12,5 0,3 1,0 0,-3 -1,0 z m 14,1 0,3 1,0 0,-3 -1,0 z m -14,4 0,3 0,1 3,0 0,-1 -2,0 0,-3 -1,0 z m 14,0 0,3 -2,0 0,1 2,0 1,0 0,-4 -1,0 z m -9,3 0,1 5,0 0,-1 -5,0 z"
       style="opacity:0.5;fill:#999999;fill-opacity:1;stroke:none;filter:url(#filter3829)" />
    <path
       style="fill:url(#radialGradient3797);fill-opacity:1;stroke:none"
       d="m 2,1036.3622 0,1 0,2 1,0 0,-2 2,0 0,-1 -2,0 -1,0 z m 5,0 0,1 5,0 0,-1 -5,0 z m 7,0 0,1 2,0 0,3 1,0 0,-4 -3,0 z m -12,5 0,3 1,0 0,-3 -1,0 z m 14,1 0,3 1,0 0,-3 -1,0 z m -14,4 0,3 0,1 3,0 0,-1 -2,0 0,-3 -1,0 z m 14,0 0,3 -2,0 0,1 2,0 1,0 0,-4 -1,0 z m -9,3 0,1 5,0 0,-1 -5,0 z"
       id="rect2987"
       inkscape:connector-curvature="0" />
  </g>
</svg>
